<svg width="150" height="100" viewBox="0 0 150 100" fill="none" xmlns="http://www.w3.org/2000/svg">
<path fill-rule="evenodd" clip-rule="evenodd" d="M0 4.28307C0 1.9176 1.9342 0 4.32015 0H117.508C119.894 0 121.828 1.9176 121.828 4.28307V11.8383C123.424 11.3868 125.52 11.1657 128.942 10.8049C135.843 10.077 139.294 9.71299 141.787 10.5369C146.039 11.9422 149.158 15.5632 149.894 19.9465C150.325 22.5162 149.422 25.8385 147.618 32.4829L142.439 51.5545L142.439 51.5546C141.836 53.7743 141.535 54.8842 141.109 55.8023C139.245 59.8201 135.301 62.4947 130.849 62.7613C129.831 62.8223 128.678 62.6986 126.373 62.4513C123.927 62.1889 122.705 62.0577 121.681 61.7619C120.58 61.4439 119.549 60.9785 118.609 60.3898C111.453 79.1637 93.1563 92.5143 71.7144 92.5143H50.1137C22.4367 92.5143 0 70.2702 0 42.8307V4.28307ZM121.828 42.8307C121.828 46.0312 121.523 49.1611 120.94 52.1932C122.505 53.6013 124.521 54.5419 126.778 54.7704C131.912 55.2901 136.634 51.9418 137.797 46.9569L141.453 31.2921C141.797 29.8166 141.969 29.0787 142.036 28.5094C142.756 22.3829 137.91 17.0117 131.688 17.0409C131.11 17.0437 130.351 17.1314 128.834 17.3069C127.889 17.4162 127.416 17.4709 127.005 17.5524C125.007 17.948 123.226 18.9025 121.828 20.2426V42.8307ZM10.1841 5.99578C7.42272 5.99578 5.18415 8.23436 5.18415 10.9958V30.7876C5.18415 61.5663 30.1353 86.5175 60.9141 86.5175C91.6928 86.5175 116.644 61.5664 116.644 30.7876V10.9958C116.644 8.23436 114.405 5.99578 111.644 5.99578H10.1841Z" fill="#581919"/>
<path d="M1.02026 90.2124C1.02026 89.8637 1.30294 89.5811 1.65163 89.5811H122.999C123.399 89.5811 123.724 89.9056 123.724 90.306C123.724 95.3103 119.667 99.3672 114.662 99.3672H10.175C5.119 99.3672 1.02026 95.2685 1.02026 90.2124Z" fill="#581919"/>
<path d="M52.9621 89.2047C35.3284 84.3447 25.0114 61.8027 23.8357 52.3327C21.1224 58.9827 18.0545 74.2746 27.4891 82.2429C36.9237 90.2111 49.588 90.9999 52.9621 89.2047Z" fill="#581919" stroke="#581919" stroke-width="4" stroke-linecap="round" stroke-linejoin="round"/>
<circle cx="25.1093" cy="43.6612" r="2.25834" fill="#581919"/>
</svg>
